<svg
  width="16"
  height="20"
  viewBox="0 0 24 30"
  fill="currentColor"
  xmlns="http://www.w3.org/2000/svg"
>
  <path
    d="M12 29.6375L3.51472 21.1523C-1.17157 16.4659 -1.17157 8.868 3.51472 4.18171C8.20101 -0.504581 15.7989 -0.504581 20.4853 4.18171C25.1716 8.868 25.1716 16.4659 20.4853 21.1523L12 29.6375ZM18.5996 19.2666C22.2445 15.6218 22.2445 9.71222 18.5996 6.06733C14.9548 2.42243 9.04523 2.42243 5.40033 6.06733C1.75544 9.71222 1.75544 15.6218 5.40033 19.2666L12 25.8663L18.5996 19.2666ZM12 15.3337C10.5272 15.3337 9.33333 14.1398 9.33333 12.667C9.33333 11.1942 10.5272 10.0003 12 10.0003C13.4728 10.0003 14.6667 11.1942 14.6667 12.667C14.6667 14.1398 13.4728 15.3337 12 15.3337Z"
    style="fill: currentColor"
  />
</svg>
